<?xml version="1.0" encoding="UTF-8" standalone="no"?>
<svg id="objs" xmlns="http://www.w3.org/2000/svg" version="1.2" baseProfile="tiny" viewBox="0 0 660 600">
  <style>
   
    @keyframes hideshow {
      0% { opacity: 0; } 
      10% { opacity: 0.10; } 
      15% { opacity: 0.15; }
      100% { opacity: 1; } 
    } 

    @keyframes wobblev {
      0% { 
        transform: translateY(-10px);
      }
      10% { 
        transform: translateY(-6px);
      }
      20% { 
        transform: translateY(-2px);
      }
      30% { 
        transform: translateY(2px);
      }
      40% { 
        transform: translateY(6px);
      }
      50% { 
        transform: translateY(10px);
      }
      60% { 
        transform: translateY(6px);
      }
      70% { 
        transform: translateY(2px);
      }
      80% { 
        transform: translateY(-2px);
      }
      90% { 
        transform: translateY(-6px);
      }
      100% { 
        transform: translateY(-10px);
      }
    }

    @keyframes wobbleh {
      0% { 
        transform: translateX(-10px);
      }
      10% { 
        transform: translateX(-6px);
      }
      20% { 
        transform: translateX(-2px);
      }
      30% { 
        transform: translateX(2px);
      }
      40% { 
        transform: translateX(6px);
      }
      50% { 
        transform: translateX(10px);
      }
      60% { 
        transform: translateX(6px);
      }
      70% { 
        transform: translateX(2px);
      }
      80% { 
        transform: translateX(-2px);
      }
      90% { 
        transform: translateX(-6px);
      }
      100% { 
        transform: translateX(-10px);
      }
    }


    .item1 { 
      animation: wobbleh 1s ease infinite;
      animation-play-state: paused;
    }
    .item2 { animation: wobblev .5s ease infinite; animation-play-state: paused;}
    .item3 { animation: wobblev .5s ease infinite; animation-play-state: paused;}
    .item4 { animation: wobbleh .3s ease infinite; animation-play-state: paused;}
    .item5 { animation: wobbleh .9s ease infinite; animation-play-state: paused;}
    .item6 { animation: wobbleh .2s ease infinite; animation-play-state: paused;}
    .item7 { animation: wobbleh .2s ease infinite; animation-play-state: paused;}
    .item8 { animation: wobbleh 1s ease infinite; animation-play-state: paused;}
    .item9 { animation: wobblev 1s ease infinite; animation-play-state: paused;}
    .item10 { animation: wobbleh 1s ease infinite; animation-play-state: paused;}
    </style>
  <!-- <g stroke-width="2.00" fill="none" stroke-linecap="butt">
    <path stroke="#671839" vector-effect="non-scaling-stroke"
      d="
  M 398.68 86.69
  A 1.18 1.18 -63.2 0 1 397.13 87.20
  Q 394.76 86.06 393.31 87.99
  Q 392.57 88.98 392.26 91.20
  Q 386.78 129.52 385.50 138.00
  Q 384.92 141.80 387.45 142.57
  Q 388.57 142.92 391.54 142.39
  Q 422.35 136.88 453.00 130.56
  Q 455.13 130.12 455.80 129.45
  Q 456.88 128.36 456.75 126.25
  Q 455.16 101.29 453.09 76.36
  Q 452.87 73.80 452.24 72.90
  Q 451.02 71.17 448.19 71.94
  Q 419.85 79.67 401.41 85.05
  Q 401.31 85.08 400.46 85.19
  Q 399.39 85.32 398.68 86.69"
    />
    <path stroke="#808080" vector-effect="non-scaling-stroke"
      d="
  M 248.54 107.50
  Q 249.51 105.50 249.25 104.00
  Q 246.90 90.66 241.40 73.72
  A 1.44 1.25 -86.1 0 0 240.84 72.98
  Q 237.36 70.79 235.85 74.72
  A 1.12 1.08 -1.0 0 1 235.22 75.35
  Q 233.58 75.96 233.06 77.06
  Q 230.28 83.00 221.64 103.47
  A 0.69 0.67 -75.2 0 1 220.95 103.89
  Q 212.86 103.18 204.74 103.63
  Q 195.71 104.13 185.96 102.90
  Q 184.31 102.69 182.78 103.34
  Q 178.64 105.10 180.76 109.07
  A 1.48 1.24 -57.4 0 1 180.88 109.99
  Q 180.65 111.14 181.11 112.15
  Q 181.55 113.09 183.00 113.62
  Q 195.81 118.30 198.19 119.56
  Q 203.28 122.26 216.38 132.69
  Q 216.42 132.73 218.34 134.07
  Q 221.15 136.04 221.24 139.14
  Q 221.26 139.70 220.14 145.33
  Q 218.23 154.98 216.16 164.60
  Q 215.65 166.96 215.92 168.44
  Q 216.59 172.03 219.73 170.77
  Q 221.31 170.14 223.16 168.00
  Q 232.05 157.72 239.82 146.55
  A 0.44 0.44 -50.1 0 1 240.49 146.49
  Q 248.01 154.22 255.17 162.60
  Q 258.83 166.88 262.69 169.31
  Q 264.87 170.69 266.63 169.63
  Q 268.11 168.73 268.40 166.72
  Q 268.68 164.81 267.85 162.92
  Q 263.60 153.18 258.52 143.84
  Q 258.49 143.78 256.70 140.86
  Q 255.31 138.59 254.62 135.99
  A 0.64 0.64 -21.5 0 1 254.94 135.26
  Q 276.61 123.61 288.06 116.06
  Q 292.64 113.05 288.47 109.98
  A 1.59 1.35 -84.0 0 1 287.94 109.20
  Q 287.56 108.02 286.61 107.36
  Q 285.81 106.81 284.14 106.85
  Q 278.64 106.98 275.06 106.44
  Q 267.82 105.35 261.97 106.03
  Q 255.37 106.81 248.81 107.86
  Q 248.33 107.94 248.54 107.50"
    />
    <path stroke="#474952" vector-effect="non-scaling-stroke"
      d="
  M 62.62 78.24
  Q 60.62 78.08 59.17 79.92
  Q 50.24 91.26 41.58 102.81
  Q 39.79 105.19 42.01 107.38
  A 1.66 1.65 -60.8 0 1 42.45 108.96
  Q 41.99 110.76 42.77 112.51
  Q 43.47 114.11 43.49 114.17
  Q 47.73 125.97 52.00 137.75
  Q 53.65 142.30 56.92 140.35
  Q 58.24 139.56 60.01 137.09
  Q 68.93 124.61 77.62 111.96
  Q 77.65 111.91 78.57 110.71
  Q 80.56 108.11 79.19 105.31
  Q 77.15 101.18 68.06 84.44
  Q 66.61 81.76 65.41 80.08
  Q 64.19 78.37 62.62 78.24"
    />
    <path stroke="#324640" vector-effect="non-scaling-stroke"
      d="
  M 154.94 179.69
  Q 153.13 178.49 151.46 178.81
  Q 141.85 180.64 132.25 182.50
  Q 130.20 182.90 129.03 183.92
  Q 128.02 184.81 127.88 186.94
  Q 127.54 192.04 127.60 197.15
  Q 127.69 205.61 127.66 207.35
  Q 126.71 261.42 126.74 315.50
  Q 126.74 324.47 126.55 335.49
  Q 126.34 347.50 126.29 359.50
  Q 126.27 363.90 130.75 364.25
  Q 145.86 365.42 161.46 366.02
  Q 163.74 366.10 164.66 364.02
  Q 165.59 361.94 165.30 359.19
  Q 164.99 356.27 164.99 356.16
  Q 161.03 275.58 157.48 194.99
  Q 157.18 188.09 156.34 181.91
  A 3.15 3.14 12.8 0 0 154.94 179.69"
    />
    <path stroke="#36183a" vector-effect="non-scaling-stroke"
      d="
  M 512.67 262.91
  Q 513.89 263.61 515.29 263.69
  Q 566.05 266.74 615.89 269.41
  Q 616.02 269.42 619.08 269.76
  Q 625.53 270.48 625.40 264.06
  Q 625.33 260.54 625.33 260.44
  Q 626.63 231.09 627.23 201.72
  Q 627.23 201.66 627.38 199.30
  Q 627.78 193.43 622.07 193.63
  Q 619.52 193.72 619.42 193.72
  Q 567.22 192.59 514.98 192.75
  Q 511.82 192.76 511.73 195.92
  Q 510.90 227.18 510.82 259.09
  Q 510.81 260.47 511.17 261.23
  Q 511.68 262.35 512.67 262.91"
    />
    <path stroke="#6c7c5b" vector-effect="non-scaling-stroke"
      d="
  M 321.8231 233.4970
  A 27.26 21.60 -12.7 0 0 290.4813 218.4185
  A 27.26 21.60 -12.7 0 0 268.6369 245.4830
  A 27.26 21.60 -12.7 0 0 299.9787 260.5615
  A 27.26 21.60 -12.7 0 0 321.8231 233.4970"
    />
    <path stroke="#58302b" vector-effect="non-scaling-stroke"
      d="
  M 352.44 446.06
  Q 356.78 449.66 361.66 452.85
  A 1.83 1.79 -86.5 0 1 362.31 453.60
  Q 367.98 465.51 373.53 477.06
  Q 374.55 479.18 375.53 480.02
  Q 377.49 481.71 379.46 480.38
  Q 380.57 479.64 382.21 476.89
  Q 420.36 412.98 458.33 348.96
  Q 458.37 348.89 459.24 347.59
  Q 461.37 344.41 458.94 341.31
  Q 454.38 335.50 434.19 311.81
  Q 432.55 309.89 430.62 310.11
  Q 429.13 310.29 427.78 312.05
  Q 426.74 313.42 425.50 315.50
  Q 388.63 377.46 351.89 439.50
  Q 350.68 441.54 350.68 442.71
  Q 350.69 444.61 352.44 446.06"
    />
    <path stroke="#1b3d51" vector-effect="non-scaling-stroke"
      d="
  M 68.69 503.56
  Q 70.35 504.74 71.93 503.45
  Q 74.21 501.57 76.07 499.30
  Q 98.26 472.27 120.69 445.43
  Q 122.31 443.49 122.77 442.18
  Q 123.83 439.13 121.02 438.16
  Q 119.46 437.62 116.47 438.17
  Q 86.25 443.69 56.05 449.35
  A 0.61 0.57 74.0 0 1 55.40 448.96
  Q 54.39 446.23 51.92 445.94
  Q 50.03 445.72 49.01 447.12
  Q 47.92 448.59 48.70 450.81
  Q 57.02 474.54 65.61 498.17
  Q 65.65 498.26 66.14 499.99
  Q 66.77 502.21 68.69 503.56"
    />
    <path stroke="#5d5e52" vector-effect="non-scaling-stroke"
      d="
  M 184.28 546.45
  Q 193.77 554.83 205.75 555.75
  Q 225.45 557.27 240.54 544.04
  Q 257.61 529.08 257.28 507.69
  Q 257.11 496.96 252.41 488.54
  Q 246.93 478.73 236.88 473.68
  Q 228.04 469.24 217.55 469.43
  Q 204.50 469.66 193.31 477.06
  Q 177.20 487.72 172.42 505.61
  Q 169.62 516.05 171.62 525.36
  Q 174.26 537.61 184.28 546.45"
    />
    <path stroke="#671839" vector-effect="non-scaling-stroke"
      d="
  M 534.25 540.99
  Q 534.63 541.20 535.05 541.26
  Q 540.25 542.02 545.50 542.20
  Q 554.87 542.53 554.99 542.54
  Q 591.30 544.70 612.56 545.19
  Q 615.55 545.26 615.95 542.83
  Q 616.19 541.32 615.02 539.54
  Q 614.12 538.16 612.69 536.31
  Q 592.83 510.64 572.65 485.21
  Q 571.24 483.43 571.23 483.43
  Q 570.48 482.75 569.18 482.29
  A 0.64 0.63 10.1 0 1 568.75 481.68
  Q 568.87 477.40 564.33 477.76
  A 2.81 2.80 11.8 0 0 562.11 479.21
  Q 546.89 507.58 532.66 536.34
  Q 531.84 538.01 532.16 538.90
  Q 532.57 540.10 534.25 540.99"
    />
  </g> -->
  <!-- <path class="bg" fill="#00000:w0"
    d="
  M 0.00 0.00
  L 660.00 0.00
  L 660.00 600.00
  L 0.00 600.00
  L 0.00 0.00
  Z
  M 398.68 86.69
  A 1.18 1.18 -63.2 0 1 397.13 87.20
  Q 394.76 86.06 393.31 87.99
  Q 392.57 88.98 392.26 91.20
  Q 386.78 129.52 385.50 138.00
  Q 384.92 141.80 387.45 142.57
  Q 388.57 142.92 391.54 142.39
  Q 422.35 136.88 453.00 130.56
  Q 455.13 130.12 455.80 129.45
  Q 456.88 128.36 456.75 126.25
  Q 455.16 101.29 453.09 76.36
  Q 452.87 73.80 452.24 72.90
  Q 451.02 71.17 448.19 71.94
  Q 419.85 79.67 401.41 85.05
  Q 401.31 85.08 400.46 85.19
  Q 399.39 85.32 398.68 86.69
  Z
  M 248.54 107.50
  Q 249.51 105.50 249.25 104.00
  Q 246.90 90.66 241.40 73.72
  A 1.44 1.25 -86.1 0 0 240.84 72.98
  Q 237.36 70.79 235.85 74.72
  A 1.12 1.08 -1.0 0 1 235.22 75.35
  Q 233.58 75.96 233.06 77.06
  Q 230.28 83.00 221.64 103.47
  A 0.69 0.67 -75.2 0 1 220.95 103.89
  Q 212.86 103.18 204.74 103.63
  Q 195.71 104.13 185.96 102.90
  Q 184.31 102.69 182.78 103.34
  Q 178.64 105.10 180.76 109.07
  A 1.48 1.24 -57.4 0 1 180.88 109.99
  Q 180.65 111.14 181.11 112.15
  Q 181.55 113.09 183.00 113.62
  Q 195.81 118.30 198.19 119.56
  Q 203.28 122.26 216.38 132.69
  Q 216.42 132.73 218.34 134.07
  Q 221.15 136.04 221.24 139.14
  Q 221.26 139.70 220.14 145.33
  Q 218.23 154.98 216.16 164.60
  Q 215.65 166.96 215.92 168.44
  Q 216.59 172.03 219.73 170.77
  Q 221.31 170.14 223.16 168.00
  Q 232.05 157.72 239.82 146.55
  A 0.44 0.44 -50.1 0 1 240.49 146.49
  Q 248.01 154.22 255.17 162.60
  Q 258.83 166.88 262.69 169.31
  Q 264.87 170.69 266.63 169.63
  Q 268.11 168.73 268.40 166.72
  Q 268.68 164.81 267.85 162.92
  Q 263.60 153.18 258.52 143.84
  Q 258.49 143.78 256.70 140.86
  Q 255.31 138.59 254.62 135.99
  A 0.64 0.64 -21.5 0 1 254.94 135.26
  Q 276.61 123.61 288.06 116.06
  Q 292.64 113.05 288.47 109.98
  A 1.59 1.35 -84.0 0 1 287.94 109.20
  Q 287.56 108.02 286.61 107.36
  Q 285.81 106.81 284.14 106.85
  Q 278.64 106.98 275.06 106.44
  Q 267.82 105.35 261.97 106.03
  Q 255.37 106.81 248.81 107.86
  Q 248.33 107.94 248.54 107.50
  Z
  M 62.62 78.24
  Q 60.62 78.08 59.17 79.92
  Q 50.24 91.26 41.58 102.81
  Q 39.79 105.19 42.01 107.38
  A 1.66 1.65 -60.8 0 1 42.45 108.96
  Q 41.99 110.76 42.77 112.51
  Q 43.47 114.11 43.49 114.17
  Q 47.73 125.97 52.00 137.75
  Q 53.65 142.30 56.92 140.35
  Q 58.24 139.56 60.01 137.09
  Q 68.93 124.61 77.62 111.96
  Q 77.65 111.91 78.57 110.71
  Q 80.56 108.11 79.19 105.31
  Q 77.15 101.18 68.06 84.44
  Q 66.61 81.76 65.41 80.08
  Q 64.19 78.37 62.62 78.24
  Z
  M 154.94 179.69
  Q 153.13 178.49 151.46 178.81
  Q 141.85 180.64 132.25 182.50
  Q 130.20 182.90 129.03 183.92
  Q 128.02 184.81 127.88 186.94
  Q 127.54 192.04 127.60 197.15
  Q 127.69 205.61 127.66 207.35
  Q 126.71 261.42 126.74 315.50
  Q 126.74 324.47 126.55 335.49
  Q 126.34 347.50 126.29 359.50
  Q 126.27 363.90 130.75 364.25
  Q 145.86 365.42 161.46 366.02
  Q 163.74 366.10 164.66 364.02
  Q 165.59 361.94 165.30 359.19
  Q 164.99 356.27 164.99 356.16
  Q 161.03 275.58 157.48 194.99
  Q 157.18 188.09 156.34 181.91
  A 3.15 3.14 12.8 0 0 154.94 179.69
  Z
  M 512.67 262.91
  Q 513.89 263.61 515.29 263.69
  Q 566.05 266.74 615.89 269.41
  Q 616.02 269.42 619.08 269.76
  Q 625.53 270.48 625.40 264.06
  Q 625.33 260.54 625.33 260.44
  Q 626.63 231.09 627.23 201.72
  Q 627.23 201.66 627.38 199.30
  Q 627.78 193.43 622.07 193.63
  Q 619.52 193.72 619.42 193.72
  Q 567.22 192.59 514.98 192.75
  Q 511.82 192.76 511.73 195.92
  Q 510.90 227.18 510.82 259.09
  Q 510.81 260.47 511.17 261.23
  Q 511.68 262.35 512.67 262.91
  Z
  M 321.8231 233.4970
  A 27.26 21.60 -12.7 0 0 290.4813 218.4185
  A 27.26 21.60 -12.7 0 0 268.6369 245.4830
  A 27.26 21.60 -12.7 0 0 299.9787 260.5615
  A 27.26 21.60 -12.7 0 0 321.8231 233.4970
  Z
  M 352.44 446.06
  Q 356.78 449.66 361.66 452.85
  A 1.83 1.79 -86.5 0 1 362.31 453.60
  Q 367.98 465.51 373.53 477.06
  Q 374.55 479.18 375.53 480.02
  Q 377.49 481.71 379.46 480.38
  Q 380.57 479.64 382.21 476.89
  Q 420.36 412.98 458.33 348.96
  Q 458.37 348.89 459.24 347.59
  Q 461.37 344.41 458.94 341.31
  Q 454.38 335.50 434.19 311.81
  Q 432.55 309.89 430.62 310.11
  Q 429.13 310.29 427.78 312.05
  Q 426.74 313.42 425.50 315.50
  Q 388.63 377.46 351.89 439.50
  Q 350.68 441.54 350.68 442.71
  Q 350.69 444.61 352.44 446.06
  Z
  M 68.69 503.56
  Q 70.35 504.74 71.93 503.45
  Q 74.21 501.57 76.07 499.30
  Q 98.26 472.27 120.69 445.43
  Q 122.31 443.49 122.77 442.18
  Q 123.83 439.13 121.02 438.16
  Q 119.46 437.62 116.47 438.17
  Q 86.25 443.69 56.05 449.35
  A 0.61 0.57 74.0 0 1 55.40 448.96
  Q 54.39 446.23 51.92 445.94
  Q 50.03 445.72 49.01 447.12
  Q 47.92 448.59 48.70 450.81
  Q 57.02 474.54 65.61 498.17
  Q 65.65 498.26 66.14 499.99
  Q 66.77 502.21 68.69 503.56
  Z
  M 184.28 546.45
  Q 193.77 554.83 205.75 555.75
  Q 225.45 557.27 240.54 544.04
  Q 257.61 529.08 257.28 507.69
  Q 257.11 496.96 252.41 488.54
  Q 246.93 478.73 236.88 473.68
  Q 228.04 469.24 217.55 469.43
  Q 204.50 469.66 193.31 477.06
  Q 177.20 487.72 172.42 505.61
  Q 169.62 516.05 171.62 525.36
  Q 174.26 537.61 184.28 546.45
  Z
  M 534.25 540.99
  Q 534.63 541.20 535.05 541.26
  Q 540.25 542.02 545.50 542.20
  Q 554.87 542.53 554.99 542.54
  Q 591.30 544.70 612.56 545.19
  Q 615.55 545.26 615.95 542.83
  Q 616.19 541.32 615.02 539.54
  Q 614.12 538.16 612.69 536.31
  Q 592.83 510.64 572.65 485.21
  Q 571.24 483.43 571.23 483.43
  Q 570.48 482.75 569.18 482.29
  A 0.64 0.63 10.1 0 1 568.75 481.68
  Q 568.87 477.40 564.33 477.76
  A 2.81 2.80 11.8 0 0 562.11 479.21
  Q 546.89 507.58 532.66 536.34
  Q 531.84 538.01 532.16 538.90
  Q 532.57 540.10 534.25 540.99
  Z"
  /> -->
  <path class="item3" fill="#ce3072"
    d="
  M 398.68 86.69
  Q 399.39 85.32 400.46 85.19
  Q 401.31 85.08 401.41 85.05
  Q 419.85 79.67 448.19 71.94
  Q 451.02 71.17 452.24 72.90
  Q 452.87 73.80 453.09 76.36
  Q 455.16 101.29 456.75 126.25
  Q 456.88 128.36 455.80 129.45
  Q 455.13 130.12 453.00 130.56
  Q 422.35 136.88 391.54 142.39
  Q 388.57 142.92 387.45 142.57
  Q 384.92 141.80 385.50 138.00
  Q 386.78 129.52 392.26 91.20
  Q 392.57 88.98 393.31 87.99
  Q 394.76 86.06 397.13 87.20
  A 1.18 1.18 -63.2 0 0 398.68 86.69
  Z"
  />
  <path class="item2" fill="#ffffff"
    d="
  M 248.81 107.86
  Q 255.37 106.81 261.97 106.03
  Q 267.82 105.35 275.06 106.44
  Q 278.64 106.98 284.14 106.85
  Q 285.81 106.81 286.61 107.36
  Q 287.56 108.02 287.94 109.20
  A 1.59 1.35 -84.0 0 0 288.47 109.98
  Q 292.64 113.05 288.06 116.06
  Q 276.61 123.61 254.94 135.26
  A 0.64 0.64 -21.5 0 0 254.62 135.99
  Q 255.31 138.59 256.70 140.86
  Q 258.49 143.78 258.52 143.84
  Q 263.60 153.18 267.85 162.92
  Q 268.68 164.81 268.40 166.72
  Q 268.11 168.73 266.63 169.63
  Q 264.87 170.69 262.69 169.31
  Q 258.83 166.88 255.17 162.60
  Q 248.01 154.22 240.49 146.49
  A 0.44 0.44 -50.1 0 0 239.82 146.55
  Q 232.05 157.72 223.16 168.00
  Q 221.31 170.14 219.73 170.77
  Q 216.59 172.03 215.92 168.44
  Q 215.65 166.96 216.16 164.60
  Q 218.23 154.98 220.14 145.33
  Q 221.26 139.70 221.24 139.14
  Q 221.15 136.04 218.34 134.07
  Q 216.42 132.73 216.38 132.69
  Q 203.28 122.26 198.19 119.56
  Q 195.81 118.30 183.00 113.62
  Q 181.55 113.09 181.11 112.15
  Q 180.65 111.14 180.88 109.99
  A 1.48 1.24 -57.4 0 0 180.76 109.07
  Q 178.64 105.10 182.78 103.34
  Q 184.31 102.69 185.96 102.90
  Q 195.71 104.13 204.74 103.63
  Q 212.86 103.18 220.95 103.89
  A 0.69 0.67 -75.2 0 0 221.64 103.47
  Q 230.28 83.00 233.06 77.06
  Q 233.58 75.96 235.22 75.35
  A 1.12 1.08 -1.0 0 0 235.85 74.72
  Q 237.36 70.79 240.84 72.98
  A 1.44 1.25 -86.1 0 1 241.40 73.72
  Q 246.90 90.66 249.25 104.00
  Q 249.51 105.50 248.54 107.50
  Q 248.33 107.94 248.81 107.86
  Z"
  />
  <path class="item1" fill="#8e92a4"
    d="
  M 65.41 80.08
  Q 66.61 81.76 68.06 84.44
  Q 77.15 101.18 79.19 105.31
  Q 80.56 108.11 78.57 110.71
  Q 77.65 111.91 77.62 111.96
  Q 68.93 124.61 60.01 137.09
  Q 58.24 139.56 56.92 140.35
  Q 53.65 142.30 52.00 137.75
  Q 47.73 125.97 43.49 114.17
  Q 43.47 114.11 42.77 112.51
  Q 41.99 110.76 42.45 108.96
  A 1.66 1.65 -60.8 0 0 42.01 107.38
  Q 39.79 105.19 41.58 102.81
  Q 50.24 91.26 59.17 79.92
  Q 60.62 78.08 62.62 78.24
  Q 64.19 78.37 65.41 80.08
  Z"
  />
  <path class="item4" fill="#648b7f"
    d="
  M 154.94 179.69
  A 3.15 3.14 12.8 0 1 156.34 181.91
  Q 157.18 188.09 157.48 194.99
  Q 161.03 275.58 164.99 356.16
  Q 164.99 356.27 165.30 359.19
  Q 165.59 361.94 164.66 364.02
  Q 163.74 366.10 161.46 366.02
  Q 145.86 365.42 130.75 364.25
  Q 126.27 363.90 126.29 359.50
  Q 126.34 347.50 126.55 335.49
  Q 126.74 324.47 126.74 315.50
  Q 126.71 261.42 127.66 207.35
  Q 127.69 205.61 127.60 197.15
  Q 127.54 192.04 127.88 186.94
  Q 128.02 184.81 129.03 183.92
  Q 130.20 182.90 132.25 182.50
  Q 141.85 180.64 151.46 178.81
  Q 153.13 178.49 154.94 179.69
  Z"
  />
  <path class="item6" fill="#6c2f74"
    d="
  M 512.67 262.91
  Q 511.68 262.35 511.17 261.23
  Q 510.81 260.47 510.82 259.09
  Q 510.90 227.18 511.73 195.92
  Q 511.82 192.76 514.98 192.75
  Q 567.22 192.59 619.42 193.72
  Q 619.52 193.72 622.07 193.63
  Q 627.78 193.43 627.38 199.30
  Q 627.23 201.66 627.23 201.72
  Q 626.63 231.09 625.33 260.44
  Q 625.33 260.54 625.40 264.06
  Q 625.53 270.48 619.08 269.76
  Q 616.02 269.42 615.89 269.41
  Q 566.05 266.74 515.29 263.69
  Q 513.89 263.61 512.67 262.91
  Z"
  />
  <!-- <ellipse class="item5" fill="#d7f8b5" cx="0.00" cy="0.00"
    transform="translate(295.23,239.49)
  rotate(-12.7)"
    rx="27.26" ry="21.60" /> -->
  <path class="item9" fill="#af5f56"
    d="
  M 352.44 446.06
  Q 350.69 444.61 350.68 442.71
  Q 350.68 441.54 351.89 439.50
  Q 388.63 377.46 425.50 315.50
  Q 426.74 313.42 427.78 312.05
  Q 429.13 310.29 430.62 310.11
  Q 432.55 309.89 434.19 311.81
  Q 454.38 335.50 458.94 341.31
  Q 461.37 344.41 459.24 347.59
  Q 458.37 348.89 458.33 348.96
  Q 420.36 412.98 382.21 476.89
  Q 380.57 479.64 379.46 480.38
  Q 377.49 481.71 375.53 480.02
  Q 374.55 479.18 373.53 477.06
  Q 367.98 465.51 362.31 453.60
  A 1.83 1.79 -86.5 0 0 361.66 452.85
  Q 356.78 449.66 352.44 446.06
  Z"
  />
  <path class="item7" fill="#357aa1"
    d="
  M 68.69 503.56
  Q 66.77 502.21 66.14 499.99
  Q 65.65 498.26 65.61 498.17
  Q 57.02 474.54 48.70 450.81
  Q 47.92 448.59 49.01 447.12
  Q 50.03 445.72 51.92 445.94
  Q 54.39 446.23 55.40 448.96
  A 0.61 0.57 74.0 0 0 56.05 449.35
  Q 86.25 443.69 116.47 438.17
  Q 119.46 437.62 121.02 438.16
  Q 123.83 439.13 122.77 442.18
  Q 122.31 443.49 120.69 445.43
  Q 98.26 472.27 76.07 499.30
  Q 74.21 501.57 71.93 503.45
  Q 70.35 504.74 68.69 503.56
  Z"
  />
  <path class="item8" fill="#babca4"
    d="
  M 184.28 546.45
  Q 174.26 537.61 171.62 525.36
  Q 169.62 516.05 172.42 505.61
  Q 177.20 487.72 193.31 477.06
  Q 204.50 469.66 217.55 469.43
  Q 228.04 469.24 236.88 473.68
  Q 246.93 478.73 252.41 488.54
  Q 257.11 496.96 257.28 507.69
  Q 257.61 529.08 240.54 544.04
  Q 225.45 557.27 205.75 555.75
  Q 193.77 554.83 184.28 546.45
  Z"
  />
  <path class="item10" fill="#ce3072"
    d="
  M 534.25 540.99
  Q 532.57 540.10 532.16 538.90
  Q 531.84 538.01 532.66 536.34
  Q 546.89 507.58 562.11 479.21
  A 2.81 2.80 11.8 0 1 564.33 477.76
  Q 568.87 477.40 568.75 481.68
  A 0.64 0.63 10.1 0 0 569.18 482.29
  Q 570.48 482.75 571.23 483.43
  Q 571.24 483.43 572.65 485.21
  Q 592.83 510.64 612.69 536.31
  Q 614.12 538.16 615.02 539.54
  Q 616.19 541.32 615.95 542.83
  Q 615.55 545.26 612.56 545.19
  Q 591.30 544.70 554.99 542.54
  Q 554.87 542.53 545.50 542.20
  Q 540.25 542.02 535.05 541.26
  Q 534.63 541.20 534.25 540.99
  Z"
  />
</svg>